<?xml version="1.0" encoding="UTF-8" standalone="no" ?>
<!DOCTYPE svg PUBLIC "-//W3C//DTD SVG 1.1//EN" "http://www.w3.org/Graphics/SVG/1.1/DTD/svg11.dtd">
<svg xmlns="http://www.w3.org/2000/svg" xmlns:xlink="http://www.w3.org/1999/xlink" version="1.1" width="800" height="600" viewBox="0 0 640 480" xml:space="preserve">
<desc>Created with Fabric.js 3.6.3</desc>
<defs>
</defs>
<g transform="matrix(0.14 0 0 0.14 308.69 246.61)"  >
<g style=""   >
		<g transform="matrix(17.6 0 0 17.6 0 4.19)"  >
<path style="stroke: none; stroke-width: 1; stroke-dasharray: none; stroke-linecap: butt; stroke-dashoffset: 0; stroke-linejoin: miter; stroke-miterlimit: 4; fill: rgb(27,115,186); fill-rule: nonzero; opacity: 1;"  transform=" translate(-62, -70.77)" d="M 10.383 126.892 L 0 0 l 124 0.255 l -10.979 126.637 l -50.553 14.638 z" stroke-linecap="round" />
</g>
		<g transform="matrix(17.6 0 0 17.6 457.73 2.7)"  >
<path style="stroke: none; stroke-width: 1; stroke-dasharray: none; stroke-linecap: butt; stroke-dashoffset: 0; stroke-linejoin: miter; stroke-miterlimit: 4; fill: rgb(28,136,199); fill-rule: nonzero; opacity: 1;"  transform=" translate(-88, -70.68)" d="M 62.468 129.275 V 12.085 l 51.064 0.17 l -9.106 104.85 z" stroke-linecap="round" />
</g>
		<g transform="matrix(17.6 0 0 17.6 -7.49 6.45)"  >
<path style="stroke: none; stroke-width: 1; stroke-dasharray: none; stroke-linecap: butt; stroke-dashoffset: 0; stroke-linejoin: miter; stroke-miterlimit: 4; fill: rgb(255,255,255); fill-rule: nonzero; opacity: 1;"  transform=" translate(-61.57, -70.89)" d="M 100.851 27.064 H 22.298 l 2.128 15.318 h 37.276 l -36.68 15.745 l 2.127 14.808 h 54.043 l -1.958 20.68 l -18.298 3.575 l -16.595 -4.255 l -1.277 -11.745 H 27.83 l 2.042 24.426 l 32.681 9.106 l 31.32 -9.957 l 4 -47.745 H 64.765 l 36.085 -14.978 z" stroke-linecap="round" />
</g>
</g>
</g>
</svg>